<svg width="464" height="608" viewBox="0 0 464 608" fill="none" xmlns="http://www.w3.org/2000/svg">
<path fill-rule="evenodd" clip-rule="evenodd" d="M35.1344 206.555C56.4244 150.211 84.4414 96.1871 132.086 59.3379C180.257 22.0817 239.755 4.2709 300.577 1.25679C363.181 -1.84559 428.114 6.09934 479.407 42.126C530.752 78.1896 554.687 138.627 578.693 196.598C604.417 258.716 646.042 325.276 622.785 388.359C599.648 451.114 520.062 466.214 465.191 504.459C412.85 540.943 372.597 600.421 309.133 606.981C243.677 613.747 182.459 577.405 128.862 539.225C75.4862 501.201 24.363 454.54 6.59079 391.461C-10.7461 329.926 12.5374 266.358 35.1344 206.555Z" fill="url(#paint0_linear)"/>
<defs>
<linearGradient id="paint0_linear" x1="520.197" y1="511.491" x2="79.3723" y2="-127.321" gradientUnits="userSpaceOnUse">
<stop offset="0.197917" stop-color="#32C892"/>
<stop offset="0.932292" stop-color="#BEDF94"/>
</linearGradient>
</defs>
</svg>
